<svg width="16" height="16" viewBox="0 0 16 16" fill="none" xmlns="http://www.w3.org/2000/svg">
<g clip-path="url(#clip0_1_2)">
<rect width="16" height="16" fill="white"/>
<rect width="16" height="16" fill="#E53637"/>
<path d="M7.144 12.176C6.44 12.176 5.82133 12.0053 5.288 11.664C4.75467 11.3227 4.33867 10.8373 4.04 10.208C3.74133 9.57867 3.592 8.82133 3.592 7.936C3.592 7.06133 3.74133 6.30933 4.04 5.68C4.33867 5.05067 4.75467 4.57067 5.288 4.24C5.82133 3.89867 6.44 3.728 7.144 3.728C7.79467 3.728 8.376 3.888 8.888 4.208C9.41067 4.51733 9.752 4.93867 9.912 5.472H9.736L9.928 3.888H12.248C12.216 4.24 12.184 4.59733 12.152 4.96C12.1307 5.312 12.12 5.65867 12.12 6V12H9.72L9.704 10.48H9.896C9.72533 10.992 9.384 11.4027 8.872 11.712C8.36 12.0213 7.784 12.176 7.144 12.176ZM7.88 10.352C8.43467 10.352 8.88267 10.1547 9.224 9.76C9.56533 9.36533 9.736 8.75733 9.736 7.936C9.736 7.11467 9.56533 6.512 9.224 6.128C8.88267 5.744 8.43467 5.552 7.88 5.552C7.32533 5.552 6.87733 5.744 6.536 6.128C6.19467 6.512 6.024 7.11467 6.024 7.936C6.024 8.75733 6.18933 9.36533 6.52 9.76C6.86133 10.1547 7.31467 10.352 7.88 10.352Z" fill="white"/>
</g>
<defs>
<clipPath id="clip0_1_2">
<rect width="16" height="16" fill="white"/>
</clipPath>
</defs>
</svg>
